<?xml version="1.0" encoding="UTF-8" standalone="no"?>
<!-- Created with Inkscape (http://www.inkscape.org/) -->

<svg
   xmlns:dc="http://purl.org/dc/elements/1.1/"
   xmlns:cc="http://creativecommons.org/ns#"
   xmlns:rdf="http://www.w3.org/1999/02/22-rdf-syntax-ns#"
   xmlns:svg="http://www.w3.org/2000/svg"
   xmlns="http://www.w3.org/2000/svg"
   xmlns:sodipodi="http://sodipodi.sourceforge.net/DTD/sodipodi-0.dtd"
   xmlns:inkscape="http://www.inkscape.org/namespaces/inkscape"
   width="440"
   height="440"
   viewBox="0 0 116.41666 116.41667"
   version="1.1"
   id="svg8"
   inkscape:version="0.92.1 r15371"
   sodipodi:docname="Frostbite logo.svg">
  <defs
     id="defs2" />
  <sodipodi:namedview
     id="base"
     pagecolor="#ffffff"
     bordercolor="#666666"
     borderopacity="1.0"
     inkscape:pageopacity="0.0"
     inkscape:pageshadow="2"
     inkscape:zoom="1.9317132"
     inkscape:cx="218.35558"
     inkscape:cy="219.49429"
     inkscape:document-units="px"
     inkscape:current-layer="layer1"
     showgrid="false"
     units="px"
     inkscape:showpageshadow="false"
     borderlayer="true"
     inkscape:pagecheckerboard="false"
     fit-margin-top="0"
     fit-margin-left="0"
     fit-margin-right="0"
     fit-margin-bottom="0"
     inkscape:window-width="1920"
     inkscape:window-height="1017"
     inkscape:window-x="-8"
     inkscape:window-y="-8"
     inkscape:window-maximized="1" />
  <metadata
     id="metadata5">
    <rdf:RDF>
      <cc:Work
         rdf:about="">
        <dc:format>image/svg+xml</dc:format>
        <dc:type
           rdf:resource="http://purl.org/dc/dcmitype/StillImage" />
        <dc:title></dc:title>
      </cc:Work>
    </rdf:RDF>
  </metadata>
  <g
     inkscape:label="Layer 1"
     inkscape:groupmode="layer"
     id="layer1"
     transform="translate(-50.721737,-43.186671)">
    <path
       style="fill:#000000;stroke-width:0.26458332"
       d="m 111.53469,156.89942 -1.35532,-2.57016 -1.83725,-6.16067 -1.83726,-6.16068 1.59538,-6.20876 1.59538,-6.20876 0.0786,0.0786 0.0786,0.0786 1.59234,14.78727 1.59233,14.78727 -0.0737,0.0737 -0.0737,0.0737 z m 4.42307,-0.17055 v -0.11393 l -0.80291,-4.9793 -0.80291,-4.97929 -0.14096,-0.46302 -0.14097,-0.46302 h 2.01113 2.01113 l 0.54638,-0.92605 0.54638,-0.92604 h 0.065 0.065 l 8.0252,3.0101 8.02518,3.0101 -0.50958,0.14768 -0.50959,0.14768 -4.49792,0.83458 -4.49792,0.83459 -4.46053,2.48993 -4.46053,2.48993 h -0.23583 -0.23582 z m -16.903043,-3.59217 -6.98116,-2.62739 -0.12548,-0.12549 -0.12548,-0.12548 4.03315,-6.16662 4.03315,-6.16662 0.186403,-0.20853 0.1864,-0.20854 1.93649,2.92874 1.93649,2.92873 0.65866,0.47981 0.65867,0.4798 0.48255,5.00208 0.48254,5.00207 0.008,0.72761 0.008,0.7276 -0.19844,-0.0102 -0.19843,-0.0102 -6.981163,-2.62739 z m 30.473443,-9.99777 -1.59922,-3.62633 0.29826,-0.0648 0.29827,-0.0648 4.36282,0.73522 4.36279,0.73522 -2.70073,1.92821 -2.70071,1.9282 -0.17074,0.91005 -0.17071,0.91004 -0.19042,0.11768 -0.19042,0.11768 z m -17.02302,2.1415 -0.013,-0.47617 -0.59283,-6.54843 -0.59282,-6.54844 h 0.20628 0.20628 l 1.78864,1.141 1.78865,1.141 2.65521,1.61699 2.6552,1.617 2.23958,0.55548 2.23959,0.55549 0.5873,0.24907 0.58727,0.24906 0.93408,1.85481 0.93406,1.85481 v 1.19723 1.19723 h -0.25257 -0.25257 l -4.83897,-1.32292 -4.83897,-1.32292 h -0.37501 -0.37501 l -1.99717,1.52136 -1.99717,1.52135 -0.34149,0.21159 -0.34149,0.21158 -0.013,-0.47617 z m -27.163073,-3.33698 -6.406303,-3.48919 -0.0098,-0.15025 -0.0098,-0.15026 3.613903,-1.01972 3.6139,-1.01973 3.46371,-2.11021 3.4637,-2.1102 0.87296,-0.52397 0.87296,-0.52397 0.70367,0.62916 0.70367,0.62915 1.26764,1.16832 1.26764,1.16831 v 1.52368 1.52368 l -3.10886,3.97127 -3.10885,3.97127 -0.39687,0.001 -0.39688,0.001 -6.40631,-3.48919 z m 17.206243,-4.09171 -2.39958,-3.36623 -1.111333,-2.0434 -1.11133,-2.0434 2.05289,-2.52066 2.052893,-2.52065 h 0.16689 0.1669 l 1.66883,4.36266 1.66884,4.36268 -0.32276,3.50868 -0.32276,3.50868 -0.0549,0.0589 -0.055,0.0589 z m 28.62299,0.42579 -6.61458,-1.57609 -1.85209,-1.96628 -1.85208,-1.96628 -3.54559,-0.91895 -3.5456,-0.91895 -0.55544,-0.52202 -0.55545,-0.52202 -0.49941,-0.84584 -0.4994,-0.84584 0.89628,0.15774 0.89628,0.15774 4.97081,0.69591 4.9708,0.69591 9.237,4.01127 9.237,4.01127 0.0797,0.2283 0.0797,0.2283 -1.85209,0.75004 -1.85208,0.75004 -0.26458,-0.0141 -0.26459,-0.0141 -6.61458,-1.57609 z m -24.47755,-4.35063 -0.28298,-0.7643 -0.41439,-1.10501 -0.41439,-1.105 1.10242,-1.54083 1.10242,-1.54083 0.44744,-0.17984 0.44745,-0.17984 0.29682,-0.0186 0.29683,-0.0186 -1.04851,3.50573 -1.04852,3.50573 -0.10081,0.10284 -0.1008,0.10284 -0.28298,-0.7643 z m 29.24005,-0.60404 -2.38125,-0.7352 -3.4897,-1.0205 -3.48972,-1.02049 0.10909,-0.17651 0.10909,-0.17651 2.51735,-1.50222 2.51732,-1.50223 3.50912,0.28433 3.50911,0.28432 0.8599,0.13468 0.8599,0.13467 v 1.86171 1.86171 l -0.95793,1.16901 -0.95789,1.16901 -0.16659,-0.0153 -0.16655,-0.0153 -2.38125,-0.7352 z m -51.773603,-1.35796 -2.03192,-1.03896 -0.45307,-0.76697 -0.45306,-0.76698 -1.616053,-0.44548 -1.616049,-0.44548 -1.374589,-0.39577 -1.374588,-0.39575 -1.080434,-1.87398 -1.080434,-1.87399 0.110181,-0.11018 0.11018,-0.11018 3.006302,0.6726 3.006299,0.6726 6.053305,1.18378 6.05331,1.18377 0.10315,0.10315 0.10315,0.10315 -1.23697,0.96371 -1.23697,0.96371 -1.15475,1.72133 -1.15475,1.72133 -0.32515,-0.0132 -0.32516,-0.0132 -2.03193,-1.03896 z m -16.801705,-2.51439 -6.662801,-0.60783 -0.39664,-0.089 -0.396639,-0.089 -4.372796,-5.62239 -4.372797,-5.62239 h 0.349988 0.349985 l 6.452045,1.33395 6.452042,1.33394 1.058333,0.99858 1.058333,0.99858 3.704167,3.39577 3.704167,3.39575 0.655444,0.62171 0.655447,0.62171 -0.787739,-0.0308 -0.787736,-0.0308 z m 46.335548,-1.68253 -0.11684,-0.11684 1.33354,-0.76161 1.33353,-0.76161 0.27597,-0.60569 0.27597,-0.60569 1.499,-0.73797 1.49901,-0.73798 4.36562,-0.6155 4.36563,-0.61551 0.33073,0.43385 0.33072,0.43386 v 0.30907 0.30908 l -1.65364,2.17578 -1.65365,2.17577 -6.03437,-0.0811 -6.03438,-0.0811 z m -21.331183,-1.85364 -2.8251,-0.42465 -0.16365,-0.16653 -0.16364,-0.16652 0.66923,-3.62298 0.66924,-3.62297 -0.54322,-1.06478 -0.54321,-1.06479 0.0846,-0.0806 0.0846,-0.0806 3.175,1.27198 3.175,1.27197 4.050303,2.17029 4.0503,2.17028 -0.14692,0.14692 -0.14691,0.14691 -4.009603,1.80877 -4.00959,1.80876 -0.29067,-0.0384 -0.29066,-0.0384 z m 42.245063,-0.27487 -1.06127,-0.75268 -1.53361,0.26422 -1.53357,0.26422 -0.13687,-0.13687 -0.13685,-0.13686 2.86401,-5.62753 2.86404,-5.62753 4.3107,-1.65859 4.31072,-1.65859 0.51792,-0.16438 0.51795,-0.16439 v 0.83035 0.83035 l -4.91945,7.25727 -4.91945,7.25727 -0.0415,-0.0118 -0.0415,-0.0118 -1.0613,-0.75267 z m -20.16602,-3.08775 0.13722,-0.13721 2.35931,-1.63741 2.35931,-1.63741 2.73118,-3.175 2.73118,-3.175 0.19302,-0.0762 0.19304,-0.0762 0.60213,1.61012 0.60214,1.61012 1.13065,0.92648 1.13064,0.92648 1.32387,1.81444 1.32384,1.81443 -1.76384,0.16011 -1.76387,0.16011 -5.82084,0.39341 -5.82083,0.3934 -0.89268,0.12126 -0.89268,0.12127 z m 26.05234,-0.70005 0.25958,-0.33073 1.93524,-2.64583 1.93522,-2.64584 1.00687,-1.37002 1.00684,-1.37002 1.07979,0.42415 1.07977,0.42415 3.15031,-3.14209 3.15029,-3.14209 0.11322,0.11921 0.11324,0.11921 -1.91246,5.14394 -1.91244,5.14394 -5.39681,1.80138 -5.39681,1.80137 h -0.23575 -0.23571 z m -25.12161,-2.70894 -0.71743,-1.19366 h -2.12684 -2.12685 v -0.13979 -0.13978 l 4.26449,-6.80553 4.26449,-6.80553 0.34301,-0.36471 0.343,-0.36471 0.55188,1.08177 0.55188,1.08178 v 2.54311 2.54312 l 0.65473,1.11721 0.65474,1.11722 -2.23388,2.89865 -2.23386,2.89864 -0.73597,0.86294 -0.73597,0.86293 z m -7.08779,-0.2036 v -0.15647 l 1.15184,-5.37773 1.15185,-5.37774 0.62706,-2.97656 0.62706,-2.97656 0.5362,2.6e-4 0.5362,2.6e-4 2.22131,0.39092 2.22132,0.39092 0.0805,0.0805 0.0805,0.0805 -4.43681,7.85891 -4.43681,7.8589 -0.18009,0.1801 -0.1801,0.18009 v -0.15647 z m -11.112503,-1.67612 -3.83646,-1.45805 -2.44739,-0.93966 -2.4474,-0.93966 v -3.94141 -3.94141 h 0.24265 0.24265 l 1.25001,0.53581 1.25,0.53582 0.0878,-0.0878 0.0878,-0.0878 -0.69815,-1.02743 -0.69815,-1.02743 -0.745,-2.77698 -0.745,-2.776991 0.0611,-0.0588 0.0611,-0.0588 2.77812,2.523881 2.77813,2.52388 1.71979,3.42193 1.71979,3.42193 3.468863,3.22413 3.46886,3.22413 -0.0701,0.0849 -0.0701,0.0849 -1.91118,-0.56918 -1.91118,-0.56917 -0.41696,-0.16001 -0.416963,-0.16 0.726443,1.23959 0.72645,1.2396 -0.20959,-0.0109 -0.20959,-0.0109 -3.836463,-1.45805 z m 32.650173,-0.76127 -2.14252,-1.96402 -1.12175,-1.72173 -1.12176,-1.72173 0.15822,-0.25602 0.15822,-0.25602 2.73029,-1.74054 2.73029,-1.74053 h 0.72329 0.72332 l 2.82747,0.43177 2.82747,0.43177 0.34721,0.18329 0.34724,0.18329 -2.64112,1.83233 -2.6411,1.83234 -0.56751,2.11667 -0.5675,2.11666 -0.31361,1.11825 -0.31361,1.11825 z m -26.85462,-2.4454 -3.325983,-3.38332 -0.83269,-4.87796 -0.83269,-4.87796 0.0689,-0.0689 0.0689,-0.0689 1.976423,1.2225 1.97642,1.22251 0.0963,0.0723 0.0963,0.0723 0.71512,3.81285 0.71511,3.81285 1.00702,1.22893 1.00702,1.22893 0.37043,1.76718 0.37043,1.76718 -0.0755,0.22636 -0.0755,0.22636 z m 53.73382,-2.76596 -0.003,-1.67569 -0.16386,-1.73442 -0.16386,-1.73441 3.40688,-2.72565 3.40688,-2.72564 1.71099,0.17382 1.71098,0.17383 0.0483,0.0529 0.0483,0.0529 -0.43641,1.96519 -0.4364,1.96519 -4.33427,3.85564 -4.3343,3.85565 -0.22977,0.0882 -0.22979,0.0882 -0.003,-1.6757 z m -48.75652,0.83785 -0.16818,-0.39687 -1.73046,-5.79263 -1.73046,-5.79262 -0.003,-0.292801 -0.003,-0.29279 2.83665,-6.67776 2.83665,-6.67776 0.17041,0.19547 0.1704,0.19547 0.60343,1.7492 0.60342,1.7492 -0.84018,2.48413 -0.84019,2.48414 -0.78479,8.202081 -0.78479,8.20208 -0.0842,0.52917 -0.0842,0.52917 -0.16818,-0.39688 z m 16.6424,-7.27431 1.42433,-4.893066 v -1.931675 -1.93168 l 1.44963,-1.17891 1.44963,-1.1789 2.94843,-5.08701 2.94841,-5.087 0.33198,-0.45401 0.33197,-0.454 -1.17398,5.80559 -1.17401,5.8056 0.0862,3.79499 0.0863,3.795001 -4.93421,3.94407 -4.93422,3.94406 h -0.13242 -0.13242 z m -2.29264,2.22518 -0.0127,-0.11024 -0.47988,-3.83646 -0.47989,-3.836461 0.0574,-0.0718 0.0574,-0.0718 1.50602,0.57632 1.50601,0.576321 -0.12301,0.32057 -0.12303,0.32056 -0.85061,3.01141 -0.85063,3.01141 -0.0971,0.11024 -0.0971,0.11024 -0.0127,-0.11024 z m -31.880693,-9.144381 -5.80963,-5.176 -0.0835,-0.0781 -0.0835,-0.0781 0.28681,-1.0651 0.2868,-1.0651 -2.25037,-5.09454 -2.25036,-5.09455 0.0627,-0.0619 0.0627,-0.0619 4.38598,2.60341 4.38598,2.60341 1.01658,2.46697 1.01659,2.46696 1.94218,4.33369 1.94217,4.33369 0.51409,2.006781 0.51409,2.00678 -0.0648,0.0648 -0.0648,0.0648 z m 23.055913,1.06513 0.11719,-1.02683 0.92062,-9.1336 0.92061,-9.13359 v -0.98672 -0.98671 h 0.23514 0.23514 l 0.17495,0.99219 0.17495,0.99218 0.91283,4.2969 0.91282,4.29688 v 0.12654 0.12653 l 1.52136,1.10857 1.52135,1.10856 0.095,0.0752 0.095,0.0752 -0.59638,0.83754 -0.59638,0.83754 0.33239,2.23419 0.33239,2.23418 -0.61267,1.15491 -0.61268,1.1549 -1.07043,0.14878 -1.07042,0.14878 -2.02999,0.17237 -2.02999,0.172381 z m 22.33134,-8.89199 v -4.9402 l 0.88487,-0.67492 0.88487,-0.67492 0.3719,0.0103 0.3719,0.0103 1.45521,0.88173 1.45521,0.88173 -0.0567,0.27016 -0.0567,0.27016 -2.29693,3.93104 -2.29693,3.93104 -0.35838,0.52189 -0.35837,0.52189 v -4.94019 z m -23.86275,-3.32256 -0.68577,-2.04144 -1.32461,-3.74999 -1.32461,-3.74999 0.23921,-6.30418 0.23922,-6.30418 0.0643,-0.52916 0.0643,-0.52917 2.70365,5.05803 2.70364,5.05803 -0.86764,7.43757 -0.86765,7.43756 -0.12918,0.12918 -0.12918,0.12918 z m 7.23456,-1.92891 -0.62089,-0.50337 -0.90465,-4.42221 -0.90466,-4.42222 0.0752,-0.22545 0.0752,-0.22545 2.0272,2.75747 2.0272,2.75747 -0.50824,2.32573 -0.50824,2.32573 -0.0686,0.0678 -0.0686,0.0678 z m 21.00249,-6.29959 -1.26624,-4.46726 3.77282,-4.91218 3.7728,-4.91219 1.1674,1.24351 1.16739,1.24351 -0.15642,2.99972 -0.1564,2.99973 -3.43071,5.13621 -3.4307,5.13622 h -0.0868 -0.0868 z m -53.837913,1.68965 -1.9709,-1.44387 -2.85775,-4.4107 -2.857743,-4.4107 -0.0057,-0.55616 -0.0057,-0.55616 -0.386935,-6.08542 -0.386935,-6.085416 -0.0043,-1.055883 -0.0043,-1.055883 1.705708,1.717341 1.705715,1.717342 3.4552,6.151629 3.45521,6.15163 0.1413,4.82858 0.1413,4.82858 0.10511,0.85989 0.10511,0.8599 -0.18181,-0.005 -0.1818,-0.005 -1.9709,-1.44387 z m 27.330003,-14.73442 -2.42071,-3.78693 -0.81972,-4.561319 -0.81971,-4.561313 v -0.385149 -0.385146 l 3.07876,-4.255849 3.07877,-4.255847 0.0798,0.07983 0.0798,0.07984 0.7144,8.59331 0.7144,8.593303 -0.46926,3.51759 -0.46925,3.51758 -0.16332,0.79851 -0.16331,0.79851 z"
       id="path4515"
       inkscape:connector-curvature="0"
       sodipodi:nodetypes="cccccccccccccccccccccccccccccccccccccccccccccccccccccccccccccccccccccccccccccccccccccccccccccccccccccccccccccccccccccccccccccccccccccccccccccccccccccccccccccccccccccccccccccccccccccccccccccccccccccccccccccccccccccccccccccccccccccccccccccccccccccccccccccccccccccccccccccccccccccccccccccccccccccccccccccccccccccccccccccccccccccccccccccccccccccccccccccccccccccccccccccccccccccccccccccccccccccccccccccccccccccccccccccccccccccccccccccccccccccccccccccccccccccccccccccccccccccccccccccccccccccccccccccccccccccccccccccccccccccccccccccccccccccccccccccccccccccccccccccccccccccccccccccccccccccccccccccccccccccccccccccccccccccccccccccccccccccccccccccccccccccczcccccccccccccccccccccccccccc" />
  </g>
</svg>
